<svg xmlns="http://www.w3.org/2000/svg" width="446" height="880" viewBox="0 0 446 880" role="img" aria-label="Idle Excuse Factory upgrades modal mockup">
  <title>Idle Excuse Factory upgrades modal mockup</title>
  <defs>
    <linearGradient id="warmBg" x1="0" y1="0" x2="0" y2="1">
      <stop offset="0" stop-color="#fff2cc"/>
      <stop offset="1" stop-color="#f8dca0"/>
    </linearGradient>
    <linearGradient id="cardGrad" x1="0" y1="0" x2="1" y2="1">
      <stop offset="0" stop-color="#fffdf5"/>
      <stop offset="1" stop-color="#ffedbc"/>
    </linearGradient>
    <linearGradient id="buttonGrad" x1="0" y1="0" x2="0" y2="1">
      <stop offset="0" stop-color="#ffcc66"/>
      <stop offset="1" stop-color="#ff9f1c"/>
    </linearGradient>
    <style>
  .bg { fill: #F8EBCB; }
  .phone { fill: #fff7e6; stroke: #2b2018; stroke-width: 3; }
  .panel { fill: #fffaf0; stroke: #4e342e; stroke-width: 2; }
  .panelSoft { fill: #fff2cf; stroke: #6d4c41; stroke-width: 1.5; }
  .hud { fill: #5a3528; }
  .footer { fill: #4a2c22; }
  .accent { fill: #ffb84d; }
  .accent2 { fill: #ffdd75; }
  .mint { fill: #d9f99d; }
  .pink { fill: #ffc4d6; }
  .blue { fill: #bde0fe; }
  .green { fill: #80c77b; }
  .orange { fill: #f59e0b; }
  .red { fill: #ef6f6c; }
  .ink { fill: #2b2018; }
  .muted { fill: #74594c; }
  .lightText { fill: #fff7e6; }
  .title { font: 700 22px 'Noto Sans', 'Noto Sans Thai', 'Noto Sans', 'Noto Sans Thai UI', Tahoma, sans-serif; }
  .h2 { font: 700 16px 'Noto Sans', 'Noto Sans Thai', 'Noto Sans', 'Noto Sans Thai UI', Tahoma, sans-serif; }
  .body { font: 500 13px 'Noto Sans', 'Noto Sans Thai', 'Noto Sans', 'Noto Sans Thai UI', Tahoma, sans-serif; }
  .small { font: 500 11px 'Noto Sans', 'Noto Sans Thai', 'Noto Sans', 'Noto Sans Thai UI', Tahoma, sans-serif; }
  .tiny { font: 500 9px 'Noto Sans', 'Noto Sans Thai', 'Noto Sans', 'Noto Sans Thai UI', Tahoma, sans-serif; }
  .buttonText { font: 700 13px 'Noto Sans', 'Noto Sans Thai', 'Noto Sans', 'Noto Sans Thai UI', Tahoma, sans-serif; }
  .navText { font: 700 10px 'Noto Sans', 'Noto Sans Thai', 'Noto Sans', 'Noto Sans Thai UI', Tahoma, sans-serif; }
  .shadow { filter: drop-shadow(0px 3px 3px rgba(43,32,24,0.18)); }
</style>
  </defs>
  <rect width="100%" height="100%" fill="#efe6d5"/>
  
  <rect x="28" y="18" width="390" height="844" rx="32" fill="#1d1511"/>
  <rect x="38" y="28" width="370" height="824" rx="24" fill="url(#warmBg)" stroke="#2b2018" stroke-width="3"/>
  <rect x="38" y="28" width="370" height="824" rx="24" fill="#2b2018" opacity="0.28"/>
  <g transform="translate(58 82)">
    <rect x="0" y="0" width="334" height="688" rx="24" class="panel shadow" />
    <rect x="0" y="0" width="334" height="72" rx="24" fill="#5a3528"/>
    <text x="22" y="31" class="title lightText" text-anchor="start">Upgrades</text>
    <text x="22" y="55" class="small lightText" text-anchor="start">ทำให้ข้ออ้างดูแพงขึ้นแบบไม่น่าเชื่อ</text>
    <circle cx="300" cy="34" r="18" fill="#fffaf0" stroke="#2b2018" stroke-width="2"/>
    <text x="300" y="40" class="h2 ink" text-anchor="middle">X</text>

    <g transform="translate(18 96)">
      <rect x="0" y="0" width="298" height="92" rx="16" class="panelSoft" />
      <rect x="16" y="16" width="48" height="48" rx="14" fill="#ffdd75" stroke="#4e342e" stroke-width="1.5"/>
      <text x="40" y="47" class="h2 ink" text-anchor="middle">⚙</text>
      <text x="78" y="24" class="body ink" text-anchor="start">Excuse Printer Speed Lv 2</text>
      <text x="78" y="44" class="small muted" text-anchor="start">ผลิตข้ออ้างเร็วขึ้น +20%</text>
      <text x="78" y="64" class="small ink" text-anchor="start">Cost: 150 coins</text>
      <rect x="218" y="54" width="60" height="26" rx="13.0" fill="#ffb84d" stroke="#4e342e" stroke-width="1.5"/><text x="248.0" y="71.0" class="small" fill="#2b2018" text-anchor="middle">Buy</text>
    </g>
    <g transform="translate(18 202)">
      <rect x="0" y="0" width="298" height="92" rx="16" class="panelSoft" />
      <rect x="16" y="16" width="48" height="48" rx="14" fill="#bde0fe" stroke="#4e342e" stroke-width="1.5"/>
      <text x="40" y="47" class="h2 ink" text-anchor="middle">▣</text>
      <text x="78" y="24" class="body ink" text-anchor="start">Bigger Shelf Lv 1</text>
      <text x="78" y="44" class="small muted" text-anchor="start">เก็บข้ออ้างได้มากขึ้น</text>
      <text x="78" y="64" class="small ink" text-anchor="start">Cost: 120 coins</text>
      <rect x="218" y="54" width="60" height="26" rx="13.0" fill="#ffb84d" stroke="#4e342e" stroke-width="1.5"/><text x="248.0" y="71.0" class="small" fill="#2b2018" text-anchor="middle">Buy</text>
    </g>
    <g transform="translate(18 308)">
      <rect x="0" y="0" width="298" height="92" rx="16" class="panelSoft" />
      <rect x="16" y="16" width="48" height="48" rx="14" fill="#c7f9cc" stroke="#4e342e" stroke-width="1.5"/>
      <text x="40" y="47" class="h2 ink" text-anchor="middle">✓</text>
      <text x="78" y="24" class="body ink" text-anchor="start">Smooth Talk Lv 0</text>
      <text x="78" y="44" class="small muted" text-anchor="start">ได้ความเนียนเพิ่มขึ้น</text>
      <text x="78" y="64" class="small ink" text-anchor="start">Cost: 200 coins</text>
      <rect x="218" y="54" width="60" height="26" rx="13.0" fill="#ffb84d" stroke="#4e342e" stroke-width="1.5"/><text x="248.0" y="71.0" class="small" fill="#2b2018" text-anchor="middle">Buy</text>
    </g>
    <g transform="translate(18 414)">
      <rect x="0" y="0" width="298" height="92" rx="16" class="panelSoft" />
      <rect x="16" y="16" width="48" height="48" rx="14" fill="#ffc4d6" stroke="#4e342e" stroke-width="1.5"/>
      <text x="40" y="47" class="h2 ink" text-anchor="middle">฿</text>
      <text x="78" y="24" class="body ink" text-anchor="start">Premium Bullshit Lv 0</text>
      <text x="78" y="44" class="small muted" text-anchor="start">ขายข้ออ้างได้เงินเพิ่ม</text>
      <text x="78" y="64" class="small ink" text-anchor="start">Cost: 250 coins</text>
      <rect x="218" y="54" width="60" height="26" rx="13.0" fill="#ead7aa" stroke="#4e342e" stroke-width="1.5"/><text x="248.0" y="71.0" class="small" fill="#2b2018" text-anchor="middle">Buy</text>
    </g>
    <g transform="translate(18 540)">
      <rect x="0" y="0" width="298" height="52" rx="16" fill="#fffdf5" stroke="#4e342e" stroke-width="1.5"/>
      <text x="18" y="22" class="body ink" text-anchor="start">Feedback toast</text>
      <text x="18" y="41" class="small muted" text-anchor="start">ยังมี coins ไม่พอ</text>
    </g>
  </g>

</svg>
